<svg width="950" height="840" xmlns="http://www.w3.org/2000/svg" version="1.1"><g transform="translate(0,10)"><g><path class="link" d="M8,428.0555555555556C239.5,428.0555555555556 239.5,381.9444444444445 471,381.9444444444445" style="stroke-width: 108.333; fill: none; stroke: rgb(64, 96, 209); stroke-opacity: 0.4;"></path><path class="link" d="M8,255.55555555555557C239.5,255.55555555555557 239.5,235.55555555555563 471,235.55555555555563" style="stroke-width: 72.2222; fill: none; stroke: rgb(76, 153, 242); stroke-opacity: 0.4;"></path><path class="link" d="M479,135.27777777777783C710.5,135.27777777777783 710.5,110.2777777777779 942,110.2777777777779" style="stroke-width: 36.1111; fill: none; stroke: rgb(120, 120, 120); stroke-opacity: 0.4;"></path><path class="link" d="M8,766.9444444444445C239.5,766.9444444444445 239.5,776.9444444444445 471,776.9444444444445" style="stroke-width: 36.1111; fill: none; stroke: rgb(230, 31, 79); stroke-opacity: 0.4;"></path><path class="link" d="M8,99.16666666666667C239.5,99.16666666666667 239.5,89.16666666666673 471,89.16666666666673" style="stroke-width: 36.1111; fill: none; stroke: rgb(62, 1, 99); stroke-opacity: 0.4;"></path><path class="link" d="M8,510.2777777777778C239.5,510.2777777777778 239.5,546.388888888889 471,546.388888888889" style="stroke-width: 36.1111; fill: none; stroke: rgb(148, 191, 105); stroke-opacity: 0.4;"></path><path class="link" d="M8,53.05555555555556C239.5,53.05555555555556 239.5,43.055555555555614 471,43.055555555555614" style="stroke-width: 36.1111; fill: none; stroke: rgb(235, 214, 32); stroke-opacity: 0.4;"></path><path class="link" d="M8,191.3888888888889C239.5,191.3888888888889 239.5,181.38888888888897 471,181.38888888888897" style="stroke-width: 36.1111; fill: none; stroke: rgb(61, 255, 29); stroke-opacity: 0.4;"></path><path class="link" d="M8,674.7222222222223C239.5,674.7222222222223 239.5,684.7222222222223 471,684.7222222222223" style="stroke-width: 36.1111; fill: none; stroke: rgb(255, 119, 42); stroke-opacity: 0.4;"></path><path class="link" d="M8,345.83333333333337C239.5,345.83333333333337 239.5,464.16666666666674 471,464.16666666666674" style="stroke-width: 36.1111; fill: none; stroke: rgb(76, 153, 242); stroke-opacity: 0.4;"></path><path class="link" d="M8,309.72222222222223C239.5,309.72222222222223 239.5,299.7222222222223 471,299.7222222222223" style="stroke-width: 36.1111; fill: none; stroke: rgb(76, 153, 242); stroke-opacity: 0.4;"></path><path class="link" d="M8,592.5C239.5,592.5 239.5,592.5000000000001 471,592.5000000000001" style="stroke-width: 36.1111; fill: none; stroke: rgb(108, 0, 217); stroke-opacity: 0.4;"></path><path class="link" d="M8,628.6111111111112C239.5,628.6111111111112 239.5,638.6111111111112 471,638.6111111111112" style="stroke-width: 36.1111; fill: none; stroke: rgb(108, 0, 217); stroke-opacity: 0.4;"></path><path class="link" d="M8,556.3888888888889C239.5,556.3888888888889 239.5,500.2777777777778 471,500.2777777777778" style="stroke-width: 36.1111; fill: none; stroke: rgb(108, 0, 217); stroke-opacity: 0.4;"></path><path class="link" d="M8,720.8333333333334C239.5,720.8333333333334 239.5,730.8333333333334 471,730.8333333333334" style="stroke-width: 36.1111; fill: none; stroke: rgb(191, 156, 105); stroke-opacity: 0.4;"></path><path class="link" d="M479,684.7222222222223C710.5,684.7222222222223 710.5,709.7222222222222 942,709.7222222222222" style="stroke-width: 36.1111; fill: none; stroke: rgb(140, 76, 0); stroke-opacity: 0.4;"></path><path class="link" d="M8,145.27777777777777C239.5,145.27777777777777 239.5,135.27777777777783 471,135.27777777777783" style="stroke-width: 36.1111; fill: none; stroke: rgb(120, 120, 120); stroke-opacity: 0.4;"></path><path class="link" d="M479,730.8333333333334C710.5,730.8333333333334 710.5,755.8333333333333 942,755.8333333333333" style="stroke-width: 36.1111; fill: none; stroke: rgb(191, 156, 105); stroke-opacity: 0.4;"></path><path class="link" d="M479,776.9444444444445C710.5,776.9444444444445 710.5,801.9444444444443 942,801.9444444444443" style="stroke-width: 36.1111; fill: none; stroke: rgb(255, 139, 209); stroke-opacity: 0.4;"></path><path class="link" d="M479,89.16666666666673C710.5,89.16666666666673 710.5,64.16666666666679 942,64.16666666666679" style="stroke-width: 36.1111; fill: none; stroke: rgb(6, 210, 255); stroke-opacity: 0.4;"></path><path class="link" d="M479,546.388888888889C710.5,546.388888888889 710.5,571.3888888888889 942,571.3888888888889" style="stroke-width: 36.1111; fill: none; stroke: rgb(148, 191, 105); stroke-opacity: 0.4;"></path><path class="link" d="M479,43.055555555555614C710.5,43.055555555555614 710.5,18.05555555555567 942,18.05555555555567" style="stroke-width: 36.1111; fill: none; stroke: rgb(191, 23, 0); stroke-opacity: 0.4;"></path><path class="link" d="M479,181.38888888888897C710.5,181.38888888888897 710.5,156.38888888888903 942,156.38888888888903" style="stroke-width: 36.1111; fill: none; stroke: rgb(245, 43, 237); stroke-opacity: 0.4;"></path><path class="link" d="M479,217.50000000000006C710.5,217.50000000000006 710.5,202.5000000000001 942,202.5000000000001" style="stroke-width: 36.1111; fill: none; stroke: rgb(245, 43, 237); stroke-opacity: 0.4;"></path><path class="link" d="M479,253.6111111111112C710.5,253.6111111111112 710.5,248.61111111111126 942,248.61111111111126" style="stroke-width: 36.1111; fill: none; stroke: rgb(245, 43, 237); stroke-opacity: 0.4;"></path><path class="link" d="M479,464.16666666666674C710.5,464.16666666666674 710.5,479.16666666666674 942,479.16666666666674" style="stroke-width: 36.1111; fill: none; stroke: rgb(14, 219, 195); stroke-opacity: 0.4;"></path><path class="link" d="M479,500.2777777777778C710.5,500.2777777777778 710.5,525.2777777777778 942,525.2777777777778" style="stroke-width: 36.1111; fill: none; stroke: rgb(14, 219, 195); stroke-opacity: 0.4;"></path><path class="link" d="M479,299.7222222222223C710.5,299.7222222222223 710.5,294.72222222222234 942,294.72222222222234" style="stroke-width: 36.1111; fill: none; stroke: rgb(153, 191, 0); stroke-opacity: 0.4;"></path><path class="link" d="M479,592.5000000000001C710.5,592.5000000000001 710.5,617.5 942,617.5" style="stroke-width: 36.1111; fill: none; stroke: rgb(108, 0, 217); stroke-opacity: 0.4;"></path><path class="link" d="M479,638.6111111111112C710.5,638.6111111111112 710.5,663.6111111111111 942,663.6111111111111" style="stroke-width: 36.1111; fill: none; stroke: rgb(32, 94, 38); stroke-opacity: 0.4;"></path><path class="link" d="M479,345.83333333333337C710.5,345.83333333333337 710.5,340.8333333333335 942,340.8333333333335" style="stroke-width: 36.1111; fill: none; stroke: rgb(64, 96, 209); stroke-opacity: 0.4;"></path><path class="link" d="M479,381.94444444444446C710.5,381.94444444444446 710.5,386.94444444444457 942,386.94444444444457" style="stroke-width: 36.1111; fill: none; stroke: rgb(64, 96, 209); stroke-opacity: 0.4;"></path><path class="link" d="M479,418.0555555555556C710.5,418.0555555555556 710.5,433.05555555555566 942,433.05555555555566" style="stroke-width: 36.1111; fill: none; stroke: rgb(64, 96, 209); stroke-opacity: 0.4;"></path></g><g><g class="node" transform="translate(471,712.7777777777778)"><rect height="36.111111111111114" width="8"><title>9th Wonder
1</title></rect><text x="14" y="18.055555555555557" dy=".35em" text-anchor="start" style="font-size: 13px; font-family: Arial, Helvetica; pointer-events: none;">9th Wonder</text></g><g class="node" transform="translate(471,327.7777777777778)"><rect height="108.33333333333334" width="8"><title>A Tribe Called Quest
3</title></rect><text x="14" y="54.16666666666667" dy=".35em" text-anchor="start" style="font-size: 13px; font-family: Arial, Helvetica; pointer-events: none;">A Tribe Called Quest</text></g><g class="node" transform="translate(471,528.3333333333335)"><rect height="36.111111111111114" width="8"><title>Beatnuts
1</title></rect><text x="14" y="18.055555555555557" dy=".35em" text-anchor="start" style="font-size: 13px; font-family: Arial, Helvetica; pointer-events: none;">Beatnuts</text></g><g class="node" transform="translate(471,758.8888888888889)"><rect height="36.111111111111114" width="8"><title>Big Boi/Bun B/Big Gee
1</title></rect><text x="14" y="18.055555555555557" dy=".35em" text-anchor="start" style="font-size: 13px; font-family: Arial, Helvetica; pointer-events: none;">Big Boi/Bun B/Big Gee</text></g><g class="node" transform="translate(471,666.6666666666667)"><rect height="36.111111111111114" width="8"><title>Blu/MED/Madlib
1</title></rect><text x="14" y="18.055555555555557" dy=".35em" text-anchor="start" style="font-size: 13px; font-family: Arial, Helvetica; pointer-events: none;">Blu/MED/Madlib</text></g><g class="node" transform="translate(471,446.1111111111112)"><rect height="72.22222222222223" width="8"><title>Busta Rhymes
2</title></rect><text x="14" y="36.111111111111114" dy=".35em" text-anchor="start" style="font-size: 13px; font-family: Arial, Helvetica; pointer-events: none;">Busta Rhymes</text></g><g class="node" transform="translate(471,163.3333333333334)"><rect height="108.33333333333334" width="8"><title>De La Soul
3</title></rect><text x="14" y="54.16666666666667" dy=".35em" text-anchor="start" style="font-size: 13px; font-family: Arial, Helvetica; pointer-events: none;">De La Soul</text></g><g class="node" transform="translate(471,25.000000000000057)"><rect height="36.111111111111114" width="8"><title>Dilated Peoples
1</title></rect><text x="14" y="18.055555555555557" dy=".35em" text-anchor="start" style="font-size: 13px; font-family: Arial, Helvetica; pointer-events: none;">Dilated Peoples</text></g><g class="node" transform="translate(471,281.66666666666674)"><rect height="36.111111111111114" width="8"><title>Lucy Pearl
1</title></rect><text x="14" y="18.055555555555557" dy=".35em" text-anchor="start" style="font-size: 13px; font-family: Arial, Helvetica; pointer-events: none;">Lucy Pearl</text></g><g class="node" transform="translate(471,620.5555555555557)"><rect height="36.111111111111114" width="8"><title>Mobb Deep
1</title></rect><text x="14" y="18.055555555555557" dy=".35em" text-anchor="start" style="font-size: 13px; font-family: Arial, Helvetica; pointer-events: none;">Mobb Deep</text></g><g class="node" transform="translate(471,71.11111111111117)"><rect height="36.111111111111114" width="8"><title>Nas
1</title></rect><text x="14" y="18.055555555555557" dy=".35em" text-anchor="start" style="font-size: 13px; font-family: Arial, Helvetica; pointer-events: none;">Nas</text></g><g class="node" transform="translate(471,117.22222222222229)"><rect height="36.111111111111114" width="8"><title>Prince Paul/Breeze Brewin/Sha
1</title></rect><text x="14" y="18.055555555555557" dy=".35em" text-anchor="start" style="font-size: 13px; font-family: Arial, Helvetica; pointer-events: none;">Prince Paul/Breeze Brewin/Sha</text></g><g class="node" transform="translate(471,574.4444444444446)"><rect height="36.111111111111114" width="8"><title>Q Tip
1</title></rect><text x="14" y="18.055555555555557" dy=".35em" text-anchor="start" style="font-size: 13px; font-family: Arial, Helvetica; pointer-events: none;">Q Tip</text></g><g class="node" transform="translate(0,702.7777777777778)"><rect height="36.111111111111114" width="8"><title>9th Wonder
1</title></rect><text x="14" y="18.055555555555557" dy=".35em" text-anchor="start" style="font-size: 13px; font-family: Arial, Helvetica; pointer-events: none;">9th Wonder</text></g><g class="node" transform="translate(0,373.8888888888889)"><rect height="108.33333333333334" width="8"><title>A Tribe Called Quest
3</title></rect><text x="14" y="54.16666666666667" dy=".35em" text-anchor="start" style="font-size: 13px; font-family: Arial, Helvetica; pointer-events: none;">A Tribe Called Quest</text></g><g class="node" transform="translate(0,35)"><rect height="36.111111111111114" width="8"><title>Alchemist
1</title></rect><text x="14" y="18.055555555555557" dy=".35em" text-anchor="start" style="font-size: 13px; font-family: Arial, Helvetica; pointer-events: none;">Alchemist</text></g><g class="node" transform="translate(0,492.2222222222223)"><rect height="36.111111111111114" width="8"><title>Beatnuts
1</title></rect><text x="14" y="18.055555555555557" dy=".35em" text-anchor="start" style="font-size: 13px; font-family: Arial, Helvetica; pointer-events: none;">Beatnuts</text></g><g class="node" transform="translate(0,748.8888888888889)"><rect height="36.111111111111114" width="8"><title>Carl Mo
1</title></rect><text x="14" y="18.055555555555557" dy=".35em" text-anchor="start" style="font-size: 13px; font-family: Arial, Helvetica; pointer-events: none;">Carl Mo</text></g><g class="node" transform="translate(0,219.44444444444446)"><rect height="144.44444444444446" width="8"><title>J Dilla
4</title></rect><text x="14" y="72.22222222222223" dy=".35em" text-anchor="start" style="font-size: 13px; font-family: Arial, Helvetica; pointer-events: none;">J Dilla</text></g><g class="node" transform="translate(0,81.11111111111111)"><rect height="36.111111111111114" width="8"><title>L.E.S.
1</title></rect><text x="14" y="18.055555555555557" dy=".35em" text-anchor="start" style="font-size: 13px; font-family: Arial, Helvetica; pointer-events: none;">L.E.S.</text></g><g class="node" transform="translate(0,656.6666666666667)"><rect height="36.111111111111114" width="8"><title>Madlib
1</title></rect><text x="14" y="18.055555555555557" dy=".35em" text-anchor="start" style="font-size: 13px; font-family: Arial, Helvetica; pointer-events: none;">Madlib</text></g><g class="node" transform="translate(0,127.22222222222223)"><rect height="36.111111111111114" width="8"><title>Prince Paul
1</title></rect><text x="14" y="18.055555555555557" dy=".35em" text-anchor="start" style="font-size: 13px; font-family: Arial, Helvetica; pointer-events: none;">Prince Paul</text></g><g class="node" transform="translate(0,538.3333333333334)"><rect height="108.33333333333334" width="8"><title>Q Tip
3</title></rect><text x="14" y="54.16666666666667" dy=".35em" text-anchor="start" style="font-size: 13px; font-family: Arial, Helvetica; pointer-events: none;">Q Tip</text></g><g class="node" transform="translate(0,173.33333333333334)"><rect height="36.111111111111114" width="8"><title>Supa Dave West
1</title></rect><text x="14" y="18.055555555555557" dy=".35em" text-anchor="start" style="font-size: 13px; font-family: Arial, Helvetica; pointer-events: none;">Supa Dave West</text></g><g class="node" transform="translate(942,783.8888888888888)"><rect height="36.111111111111114" width="8" style="fill: rgb(102, 102, 102);"><title>808
1</title></rect><text x="-6" y="18.055555555555557" dy=".35em" text-anchor="end" style="font-size: 11px; font-family: Arial, Helvetica; pointer-events: none;">808</text></g><g class="node" transform="translate(942,737.7777777777777)"><rect height="36.111111111111114" width="8" style="fill: rgb(102, 102, 102);"><title>A Glimmer
1</title></rect><text x="-6" y="18.055555555555557" dy=".35em" text-anchor="end" style="font-size: 11px; font-family: Arial, Helvetica; pointer-events: none;">A Glimmer</text></g><g class="node" transform="translate(942,691.6666666666666)"><rect height="36.111111111111114" width="8" style="fill: rgb(102, 102, 102);"><title>Burgundy Whip
1</title></rect><text x="-6" y="18.055555555555557" dy=".35em" text-anchor="end" style="font-size: 11px; font-family: Arial, Helvetica; pointer-events: none;">Burgundy Whip</text></g><g class="node" transform="translate(942,645.5555555555555)"><rect height="36.111111111111114" width="8" style="fill: rgb(102, 102, 102);"><title>Drink Away the Pain
1</title></rect><text x="-6" y="18.055555555555557" dy=".35em" text-anchor="end" style="font-size: 11px; font-family: Arial, Helvetica; pointer-events: none;">Drink Away the Pain</text></g><g class="node" transform="translate(942,415.0000000000001)"><rect height="36.111111111111114" width="8" style="fill: rgb(102, 102, 102);"><title>Electric Relaxation
1</title></rect><text x="-6" y="18.055555555555557" dy=".35em" text-anchor="end" style="font-size: 11px; font-family: Arial, Helvetica; pointer-events: none;">Electric Relaxation</text></g><g class="node" transform="translate(942,553.3333333333334)"><rect height="36.111111111111114" width="8" style="fill: rgb(102, 102, 102);"><title>Finger Smoke
1</title></rect><text x="-6" y="18.055555555555557" dy=".35em" text-anchor="end" style="font-size: 11px; font-family: Arial, Helvetica; pointer-events: none;">Finger Smoke</text></g><g class="node" transform="translate(942,599.4444444444445)"><rect height="36.111111111111114" width="8" style="fill: rgb(102, 102, 102);"><title>Getting Up
1</title></rect><text x="-6" y="18.055555555555557" dy=".35em" text-anchor="end" style="font-size: 11px; font-family: Arial, Helvetica; pointer-events: none;">Getting Up</text></g><g class="node" transform="translate(942,507.2222222222223)"><rect height="36.111111111111114" width="8" style="fill: rgb(102, 102, 102);"><title>Ill Vibe
1</title></rect><text x="-6" y="18.055555555555557" dy=".35em" text-anchor="end" style="font-size: 11px; font-family: Arial, Helvetica; pointer-events: none;">Ill Vibe</text></g><g class="node" transform="translate(942,461.1111111111112)"><rect height="36.111111111111114" width="8" style="fill: rgb(102, 102, 102);"><title>Ill Vibe (Jay Dee Remix)
1</title></rect><text x="-6" y="18.055555555555557" dy=".35em" text-anchor="end" style="font-size: 11px; font-family: Arial, Helvetica; pointer-events: none;">Ill Vibe (Jay Dee Remix)</text></g><g class="node" transform="translate(942,368.888888888889)"><rect height="36.111111111111114" width="8" style="fill: rgb(102, 102, 102);"><title>Lyrics to Go
1</title></rect><text x="-6" y="18.055555555555557" dy=".35em" text-anchor="end" style="font-size: 11px; font-family: Arial, Helvetica; pointer-events: none;">Lyrics to Go</text></g><g class="node" transform="translate(942,230.55555555555569)"><rect height="36.111111111111114" width="8" style="fill: rgb(102, 102, 102);"><title>Much More
1</title></rect><text x="-6" y="18.055555555555557" dy=".35em" text-anchor="end" style="font-size: 11px; font-family: Arial, Helvetica; pointer-events: none;">Much More</text></g><g class="node" transform="translate(942,92.22222222222234)"><rect height="36.111111111111114" width="8" style="fill: rgb(102, 102, 102);"><title>Pain
1</title></rect><text x="-6" y="18.055555555555557" dy=".35em" text-anchor="end" style="font-size: 11px; font-family: Arial, Helvetica; pointer-events: none;">Pain</text></g><g class="node" transform="translate(942,322.77777777777794)"><rect height="36.111111111111114" width="8" style="fill: rgb(102, 102, 102);"><title>Skypager
1</title></rect><text x="-6" y="18.055555555555557" dy=".35em" text-anchor="end" style="font-size: 11px; font-family: Arial, Helvetica; pointer-events: none;">Skypager</text></g><g class="node" transform="translate(942,184.44444444444457)"><rect height="36.111111111111114" width="8" style="fill: rgb(102, 102, 102);"><title>Stakes Is High
1</title></rect><text x="-6" y="18.055555555555557" dy=".35em" text-anchor="end" style="font-size: 11px; font-family: Arial, Helvetica; pointer-events: none;">Stakes Is High</text></g><g class="node" transform="translate(942,46.11111111111123)"><rect height="36.111111111111114" width="8" style="fill: rgb(102, 102, 102);"><title>U Gotta Love It
1</title></rect><text x="-6" y="18.055555555555557" dy=".35em" text-anchor="end" style="font-size: 11px; font-family: Arial, Helvetica; pointer-events: none;">U Gotta Love It</text></g><g class="node" transform="translate(942,138.33333333333346)"><rect height="36.111111111111114" width="8" style="fill: rgb(102, 102, 102);"><title>Voodoo Circus
1</title></rect><text x="-6" y="18.055555555555557" dy=".35em" text-anchor="end" style="font-size: 11px; font-family: Arial, Helvetica; pointer-events: none;">Voodoo Circus</text></g><g class="node" transform="translate(942,276.6666666666668)"><rect height="36.111111111111114" width="8" style="fill: rgb(102, 102, 102);"><title>Without You (Jay Dee Remix)
1</title></rect><text x="-6" y="18.055555555555557" dy=".35em" text-anchor="end" style="font-size: 11px; font-family: Arial, Helvetica; pointer-events: none;">Without You (Jay Dee Remix)</text></g><g class="node" transform="translate(942,1.1368683772161603e-13)"><rect height="36.111111111111114" width="8" style="fill: rgb(102, 102, 102);"><title>Worst Comes To Worst
1</title></rect><text x="-6" y="18.055555555555557" dy=".35em" text-anchor="end" style="font-size: 11px; font-family: Arial, Helvetica; pointer-events: none;">Worst Comes To Worst</text></g></g></g></svg>
