
<svg width="800" height="745" xmlns="http://www.w3.org/2000/svg" version="1.1"> xmlns:xlink="http://www.w3.org/1999/xlink">

<g transform="translate(0,10)"><g><path class="link" d="M8,377.9166666666667C202,377.9166666666667 202,337.0833333333333 396,337.0833333333333" style="stroke-width: 92.5; fill: none; stroke: rgb(191, 131, 105); stroke-opacity: 0.4;"></path><path class="link" d="M8,229.1666666666667C202,229.1666666666667 202,209.16666666666669 396,209.16666666666669" style="stroke-width: 61.6667; fill: none; stroke: rgb(148, 191, 105); stroke-opacity: 0.4;"></path><path class="link" d="M404,337.0833333333333C598,337.0833333333333 598,342.08333333333326 792,342.08333333333326" style="stroke-width: 30.8333; fill: none; stroke: rgb(191, 131, 105); stroke-opacity: 0.4;"></path><path class="link" d="M8,449.58333333333337C202,449.58333333333337 202,480.4166666666667 396,480.4166666666667" style="stroke-width: 30.8333; fill: none; stroke: rgb(191, 182, 105); stroke-opacity: 0.4;"></path><path class="link" d="M8,674.5833333333334C202,674.5833333333334 202,684.5833333333334 396,684.5833333333334" style="stroke-width: 30.8333; fill: none; stroke: rgb(174, 191, 105); stroke-opacity: 0.4;"></path><path class="link" d="M8,633.75C202,633.75 202,643.75 396,643.75" style="stroke-width: 30.8333; fill: none; stroke: rgb(191, 105, 105); stroke-opacity: 0.4;"></path><path class="link" d="M8,275.41666666666674C202,275.41666666666674 202,265.4166666666667 396,265.4166666666667" style="stroke-width: 30.8333; fill: none; stroke: rgb(148, 191, 105); stroke-opacity: 0.4;"></path><path class="link" d="M8,306.25000000000006C202,306.25000000000006 202,408.75 396,408.75" style="stroke-width: 30.8333; fill: none; stroke: rgb(148, 191, 105); stroke-opacity: 0.4;"></path><path class="link" d="M8,91.25000000000006C202,91.25000000000006 202,81.25 396,81.25" style="stroke-width: 30.8333; fill: none; stroke: rgb(122, 191, 105); stroke-opacity: 0.4;"></path><path class="link" d="M8,592.9166666666666C202,592.9166666666666 202,602.9166666666666 396,602.9166666666666" style="stroke-width: 30.8333; fill: none; stroke: rgb(105, 191, 114); stroke-opacity: 0.4;"></path><path class="link" d="M8,132.08333333333337C202,132.08333333333337 202,122.08333333333333 396,122.08333333333333" style="stroke-width: 30.8333; fill: none; stroke: rgb(105, 191, 139); stroke-opacity: 0.4;"></path><path class="link" d="M8,521.25C202,521.25 202,521.25 396,521.25" style="stroke-width: 30.8333; fill: none; stroke: rgb(105, 191, 165); stroke-opacity: 0.4;"></path><path class="link" d="M8,552.0833333333333C202,552.0833333333333 202,562.0833333333333 396,562.0833333333333" style="stroke-width: 30.8333; fill: none; stroke: rgb(105, 191, 165); stroke-opacity: 0.4;"></path><path class="link" d="M8,490.4166666666667C202,490.4166666666667 202,439.5833333333333 396,439.5833333333333" style="stroke-width: 30.8333; fill: none; stroke: rgb(105, 191, 165); stroke-opacity: 0.4;"></path><path class="link" d="M8,172.9166666666667C202,172.9166666666667 202,162.91666666666666 396,162.91666666666666" style="stroke-width: 30.8333; fill: none; stroke: rgb(105, 191, 191); stroke-opacity: 0.4;"></path><path class="link" d="M404,643.75C598,643.75 598,668.7499999999999 792,668.7499999999999" style="stroke-width: 30.8333; fill: none; stroke: rgb(191, 105, 105); stroke-opacity: 0.4;"></path><path class="link" d="M8,50.41666666666672C202,50.41666666666672 202,40.416666666666664 396,40.416666666666664" style="stroke-width: 30.8333; fill: none; stroke: rgb(191, 156, 105); stroke-opacity: 0.4;"></path><path class="link" d="M404,306.25C598,306.25 598,301.24999999999994 792,301.24999999999994" style="stroke-width: 30.8333; fill: none; stroke: rgb(191, 131, 105); stroke-opacity: 0.4;"></path><path class="link" d="M404,367.9166666666667C598,367.9166666666667 598,382.9166666666666 792,382.9166666666666" style="stroke-width: 30.8333; fill: none; stroke: rgb(191, 131, 105); stroke-opacity: 0.4;"></path><path class="link" d="M404,40.416666666666664C598,40.416666666666664 598,15.416666666666666 792,15.416666666666666" style="stroke-width: 30.8333; fill: none; stroke: rgb(105, 165, 191); stroke-opacity: 0.4;"></path><path class="link" d="M404,480.4166666666667C598,480.4166666666667 598,505.4166666666665 792,505.4166666666665" style="stroke-width: 30.8333; fill: none; stroke: rgb(191, 182, 105); stroke-opacity: 0.4;"></path><path class="link" d="M404,684.5833333333334C598,684.5833333333334 598,709.5833333333333 792,709.5833333333333" style="stroke-width: 30.8333; fill: none; stroke: rgb(105, 139, 191); stroke-opacity: 0.4;"></path><path class="link" d="M404,224.58333333333331C598,224.58333333333331 598,219.5833333333333 792,219.5833333333333" style="stroke-width: 30.8333; fill: none; stroke: rgb(105, 114, 191); stroke-opacity: 0.4;"></path><path class="link" d="M404,193.75C598,193.75 598,178.74999999999997 792,178.74999999999997" style="stroke-width: 30.8333; fill: none; stroke: rgb(105, 114, 191); stroke-opacity: 0.4;"></path><path class="link" d="M404,162.91666666666666C598,162.91666666666666 598,137.91666666666666 792,137.91666666666666" style="stroke-width: 30.8333; fill: none; stroke: rgb(105, 114, 191); stroke-opacity: 0.4;"></path><path class="link" d="M404,265.4166666666667C598,265.4166666666667 598,260.41666666666663 792,260.41666666666663" style="stroke-width: 30.8333; fill: none; stroke: rgb(122, 105, 191); stroke-opacity: 0.4;"></path><path class="link" d="M404,408.75C598,408.75 598,423.7499999999999 792,423.7499999999999" style="stroke-width: 30.8333; fill: none; stroke: rgb(148, 105, 191); stroke-opacity: 0.4;"></path><path class="link" d="M404,439.5833333333333C598,439.5833333333333 598,464.5833333333332 792,464.5833333333332" style="stroke-width: 30.8333; fill: none; stroke: rgb(148, 105, 191); stroke-opacity: 0.4;"></path><path class="link" d="M404,81.25C598,81.25 598,56.24999999999999 792,56.24999999999999" style="stroke-width: 30.8333; fill: none; stroke: rgb(174, 105, 191); stroke-opacity: 0.4;"></path><path class="link" d="M404,602.9166666666666C598,602.9166666666666 598,627.9166666666665 792,627.9166666666665" style="stroke-width: 30.8333; fill: none; stroke: rgb(191, 105, 182); stroke-opacity: 0.4;"></path><path class="link" d="M404,122.08333333333333C598,122.08333333333333 598,97.08333333333333 792,97.08333333333333" style="stroke-width: 30.8333; fill: none; stroke: rgb(191, 105, 156); stroke-opacity: 0.4;"></path><path class="link" d="M404,521.25C598,521.25 598,546.2499999999998 792,546.2499999999998" style="stroke-width: 30.8333; fill: none; stroke: rgb(105, 191, 165); stroke-opacity: 0.4;"></path><path class="link" d="M404,562.0833333333333C598,562.0833333333333 598,587.0833333333331 792,587.0833333333331" style="stroke-width: 30.8333; fill: none; stroke: rgb(191, 105, 131); stroke-opacity: 0.4;"></path></g><g><g class="node" transform="translate(396,628.3333333333334)"><rect height="30.833333333333332" width="8"><title>9th Wonder
1</title></rect><text x="14" y="15.416666666666666" dy=".35em" text-anchor="start" style="font-size: 11px; font-family: Arial, Helvetica; pointer-events: none;">9th Wonder</text></g><g class="node" transform="translate(396,290.8333333333333)"><rect height="92.5" width="8"><title>A Tribe Called Quest
3</title></rect><text x="14" y="46.25" dy=".35em" text-anchor="start" style="font-size: 11px; font-family: Arial, Helvetica; pointer-events: none;">A Tribe Called Quest</text></g><g class="node" transform="translate(396,465)"><rect height="30.833333333333332" width="8"><title>Beatnuts
1</title></rect><text x="14" y="15.416666666666666" dy=".35em" text-anchor="start" style="font-size: 11px; font-family: Arial, Helvetica; pointer-events: none;">Beatnuts</text></g><g class="node" transform="translate(396,669.1666666666667)"><rect height="30.833333333333332" width="8"><title>Big Boi/Bun B/Big Gee
1</title></rect><text x="14" y="15.416666666666666" dy=".35em" text-anchor="start" style="font-size: 11px; font-family: Arial, Helvetica; pointer-events: none;">Big Boi/Bun B/Big Gee</text></g><g class="node" transform="translate(396,587.5)"><rect height="30.833333333333332" width="8"><title>Blu/MED/Madlib
1</title></rect><text x="14" y="15.416666666666666" dy=".35em" text-anchor="start" style="font-size: 11px; font-family: Arial, Helvetica; pointer-events: none;">Blu/MED/Madlib</text></g><g class="node" transform="translate(396,393.3333333333333)"><rect height="61.666666666666664" width="8"><title>Busta Rhymes
2</title></rect><text x="14" y="30.833333333333332" dy=".35em" text-anchor="start" style="font-size: 11px; font-family: Arial, Helvetica; pointer-events: none;">Busta Rhymes</text></g><g class="node" transform="translate(396,147.5)"><rect height="92.5" width="8"><title>De La Soul
3</title></rect><text x="14" y="46.25" dy=".35em" text-anchor="start" style="font-size: 11px; font-family: Arial, Helvetica; pointer-events: none;">De La Soul</text></g><g class="node" transform="translate(396,25)"><rect height="30.833333333333332" width="8"><title>Dilated Peoples
1</title></rect><text x="14" y="15.416666666666666" dy=".35em" text-anchor="start" style="font-size: 11px; font-family: Arial, Helvetica; pointer-events: none;">Dilated Peoples</text></g><g class="node" transform="translate(396,250)"><rect height="30.833333333333332" width="8"><title>Lucy Pearl
1</title></rect><text x="14" y="15.416666666666666" dy=".35em" text-anchor="start" style="font-size: 11px; font-family: Arial, Helvetica; pointer-events: none;">Lucy Pearl</text></g><g class="node" transform="translate(396,546.6666666666666)"><rect height="30.833333333333332" width="8"><title>Mobb Deep
1</title></rect><text x="14" y="15.416666666666666" dy=".35em" text-anchor="start" style="font-size: 11px; font-family: Arial, Helvetica; pointer-events: none;">Mobb Deep</text></g><g class="node" transform="translate(396,65.83333333333333)"><rect height="30.833333333333332" width="8"><title>Nas
1</title></rect><text x="14" y="15.416666666666666" dy=".35em" text-anchor="start" style="font-size: 11px; font-family: Arial, Helvetica; pointer-events: none;">Nas</text></g><g class="node" transform="translate(396,106.66666666666666)"><rect height="30.833333333333332" width="8"><title>Prince Paul/Breeze Brewin/Sha
1</title></rect><text x="14" y="15.416666666666666" dy=".35em" text-anchor="start" style="font-size: 11px; font-family: Arial, Helvetica; pointer-events: none;">Prince Paul/Breeze Brewin/Sha</text></g><g class="node" transform="translate(396,505.8333333333333)"><rect height="30.833333333333332" width="8"><title>Q Tip
1</title></rect><text x="14" y="15.416666666666666" dy=".35em" text-anchor="start" style="font-size: 11px; font-family: Arial, Helvetica; pointer-events: none;">Q Tip</text></g><g class="node" transform="translate(0,618.3333333333334)"><rect height="30.833333333333332" width="8"><title>9th Wonder
1</title></rect><text x="14" y="15.416666666666666" dy=".35em" text-anchor="start" style="font-size: 11px; font-family: Arial, Helvetica; pointer-events: none;">9th Wonder</text></g><g class="node" transform="translate(0,331.6666666666667)"><rect height="92.5" width="8"><title>A Tribe Called Quest
3</title></rect><text x="14" y="46.25" dy=".35em" text-anchor="start" style="font-size: 11px; font-family: Arial, Helvetica; pointer-events: none;">A Tribe Called Quest</text></g><g class="node" transform="translate(0,35.00000000000006)"><rect height="30.833333333333332" width="8"><title>Alchemist
1</title></rect><text x="14" y="15.416666666666666" dy=".35em" text-anchor="start" style="font-size: 11px; font-family: Arial, Helvetica; pointer-events: none;">Alchemist</text></g><g class="node" transform="translate(0,434.1666666666667)"><rect height="30.833333333333332" width="8"><title>Beatnuts
1</title></rect><text x="14" y="15.416666666666666" dy=".35em" text-anchor="start" style="font-size: 11px; font-family: Arial, Helvetica; pointer-events: none;">Beatnuts</text></g><g class="node" transform="translate(0,659.1666666666667)"><rect height="30.833333333333332" width="8"><title>Carl Mo
1</title></rect><text x="14" y="15.416666666666666" dy=".35em" text-anchor="start" style="font-size: 11px; font-family: Arial, Helvetica; pointer-events: none;">Carl Mo</text></g><g class="node" transform="translate(0,198.33333333333337)"><rect height="123.33333333333333" width="8"><title>J Dilla
4</title></rect><text x="14" y="61.666666666666664" dy=".35em" text-anchor="start" style="font-size: 11px; font-family: Arial, Helvetica; pointer-events: none;">J Dilla</text></g><g class="node" transform="translate(0,75.83333333333339)"><rect height="30.833333333333332" width="8"><title>L.E.S.
1</title></rect><text x="14" y="15.416666666666666" dy=".35em" text-anchor="start" style="font-size: 11px; font-family: Arial, Helvetica; pointer-events: none;">L.E.S.</text></g><g class="node" transform="translate(0,577.5)"><rect height="30.833333333333332" width="8"><title>Madlib
1</title></rect><text x="14" y="15.416666666666666" dy=".35em" text-anchor="start" style="font-size: 11px; font-family: Arial, Helvetica; pointer-events: none;">Madlib</text></g><g class="node" transform="translate(0,116.66666666666671)"><rect height="30.833333333333332" width="8"><title>Prince Paul
1</title></rect><text x="14" y="15.416666666666666" dy=".35em" text-anchor="start" style="font-size: 11px; font-family: Arial, Helvetica; pointer-events: none;">Prince Paul</text></g><g class="node" transform="translate(0,475)"><rect height="92.5" width="8"><title>Q Tip
3</title></rect><text x="14" y="46.25" dy=".35em" text-anchor="start" style="font-size: 11px; font-family: Arial, Helvetica; pointer-events: none;">Q Tip</text></g><g class="node" transform="translate(0,157.50000000000006)"><rect height="30.833333333333332" width="8"><title>Supa Dave West
1</title></rect><text x="14" y="15.416666666666666" dy=".35em" text-anchor="start" style="font-size: 11px; font-family: Arial, Helvetica; pointer-events: none;">Supa Dave West</text></g>

<g class="node" transform="translate(792,694.1666666666666)"><rect height="30.833333333333332" width="8" style="fill: rgb(102, 102, 102);"><title>808
1</title></rect><text x="-6" y="15.416666666666666" dy=".35em" text-anchor="end" style="font-size: 11px; font-family: Arial, Helvetica; pointer-events: none;">808</text></g><g class="node" transform="translate(792,653.3333333333333)"><rect height="30.833333333333332" width="8" style="fill: rgb(102, 102, 102);"><title>A Glimmer
1</title></rect><text x="-6" y="15.416666666666666" dy=".35em" text-anchor="end" style="font-size: 11px; font-family: Arial, Helvetica; pointer-events: none;">A Glimmer</text></g><g class="node" transform="translate(792,612.4999999999999)"><rect height="30.833333333333332" width="8" style="fill: rgb(102, 102, 102);"><title>Burgundy Whip
1</title></rect><text x="-6" y="15.416666666666666" dy=".35em" text-anchor="end" style="font-size: 11px; font-family: Arial, Helvetica; pointer-events: none;">Burgundy Whip</text></g><g class="node" transform="translate(792,571.6666666666665)"><rect height="30.833333333333332" width="8" style="fill: rgb(102, 102, 102);"><title>Drink Away the Pain
1</title></rect><text x="-6" y="15.416666666666666" dy=".35em" text-anchor="end" style="font-size: 11px; font-family: Arial, Helvetica; pointer-events: none;">Drink Away the Pain</text></g><g class="node" transform="translate(792,367.4999999999999)"><rect height="30.833333333333332" width="8" style="fill: rgb(102, 102, 102);"><title>Electric Relaxation
1</title></rect><text x="-6" y="15.416666666666666" dy=".35em" text-anchor="end" style="font-size: 11px; font-family: Arial, Helvetica; pointer-events: none;">Electric Relaxation</text></g><g class="node" transform="translate(792,489.99999999999983)"><rect height="30.833333333333332" width="8" style="fill: rgb(102, 102, 102);"><title>Finger Smoke
1</title></rect><text x="-6" y="15.416666666666666" dy=".35em" text-anchor="end" style="font-size: 11px; font-family: Arial, Helvetica; pointer-events: none;">Finger Smoke</text></g><g class="node" transform="translate(792,530.8333333333331)"><rect height="30.833333333333332" width="8" style="fill: rgb(102, 102, 102);"><title>Getting Up
1</title></rect><text x="-6" y="15.416666666666666" dy=".35em" text-anchor="end" style="font-size: 11px; font-family: Arial, Helvetica; pointer-events: none;">Getting Up</text></g><g class="node" transform="translate(792,449.1666666666665)"><rect height="30.833333333333332" width="8" style="fill: rgb(102, 102, 102);"><title>Ill Vibe
1</title></rect><text x="-6" y="15.416666666666666" dy=".35em" text-anchor="end" style="font-size: 11px; font-family: Arial, Helvetica; pointer-events: none;">Ill Vibe</text></g><g class="node" transform="translate(792,408.3333333333332)"><rect height="30.833333333333332" width="8" style="fill: rgb(102, 102, 102);"><title>Ill Vibe (Jay Dee Remix)
1</title></rect><text x="-6" y="15.416666666666666" dy=".35em" text-anchor="end" style="font-size: 11px; font-family: Arial, Helvetica; pointer-events: none;">Ill Vibe (Jay Dee Remix)</text></g><g class="node" transform="translate(792,326.6666666666666)"><rect height="30.833333333333332" width="8" style="fill: rgb(102, 102, 102);"><title>Lyrics to Go
1</title></rect><text x="-6" y="15.416666666666666" dy=".35em" text-anchor="end" style="font-size: 11px; font-family: Arial, Helvetica; pointer-events: none;">Lyrics to Go</text></g><g class="node" transform="translate(792,204.16666666666663)"><rect height="30.833333333333332" width="8" style="fill: rgb(102, 102, 102);"><title>Much More
1</title></rect><text x="-6" y="15.416666666666666" dy=".35em" text-anchor="end" style="font-size: 11px; font-family: Arial, Helvetica; pointer-events: none;">Much More</text></g><g class="node" transform="translate(792,81.66666666666666)"><rect height="30.833333333333332" width="8" style="fill: rgb(102, 102, 102);"><title>Pain
1</title></rect><text x="-6" y="15.416666666666666" dy=".35em" text-anchor="end" style="font-size: 11px; font-family: Arial, Helvetica; pointer-events: none;">Pain</text></g><g class="node" transform="translate(792,285.83333333333326)"><rect height="30.833333333333332" width="8" style="fill: rgb(102, 102, 102);"><title>Skypager
1</title></rect><text x="-6" y="15.416666666666666" dy=".35em" text-anchor="end" style="font-size: 11px; font-family: Arial, Helvetica; pointer-events: none;">Skypager</text></g><g class="node" transform="translate(792,163.33333333333331)"><rect height="30.833333333333332" width="8" style="fill: rgb(102, 102, 102);"><title>Stakes Is High
1</title></rect><text x="-6" y="15.416666666666666" dy=".35em" text-anchor="end" style="font-size: 11px; font-family: Arial, Helvetica; pointer-events: none;">Stakes Is High</text></g><g class="node" transform="translate(792,40.83333333333333)"><rect height="30.833333333333332" width="8" style="fill: rgb(102, 102, 102);"><title>U Gotta Love It
1</title></rect><text x="-6" y="15.416666666666666" dy=".35em" text-anchor="end" style="font-size: 11px; font-family: Arial, Helvetica; pointer-events: none;">U Gotta Love It</text></g><g class="node" transform="translate(792,122.49999999999999)"><rect height="30.833333333333332" width="8" style="fill: rgb(102, 102, 102);"><title>Voodoo Circus
1</title></rect><text x="-6" y="15.416666666666666" dy=".35em" text-anchor="end" style="font-size: 11px; font-family: Arial, Helvetica; pointer-events: none;">Voodoo Circus</text></g><g class="node" transform="translate(792,244.99999999999994)"><rect height="30.833333333333332" width="8" style="fill: rgb(102, 102, 102);"><title>Without You (Jay Dee Remix)
1</title></rect><text x="-6" y="15.416666666666666" dy=".35em" text-anchor="end" style="font-size: 11px; font-family: Arial, Helvetica; pointer-events: none;">Without You (Jay Dee Remix)</text></g><g class="node" transform="translate(792,0)"><rect height="30.833333333333332" width="8" style="fill: rgb(102, 102, 102);"><title>Worst Comes To Worst
1</title></rect><text x="-6" y="15.416666666666666" dy=".35em" text-anchor="end" style="font-size: 11px; font-family: Arial, Helvetica; pointer-events: none;">Worst Comes To Worst</text></g></g></g></svg>
