<svg width="950" height="860" xmlns="http://www.w3.org/2000/svg" version="1.1"> xmlns:xlink="http://www.w3.org/1999/xlink"><g transform="translate(0,10)"><g><path class="link" d="M8,232.50000000000006C239.5,232.50000000000006 239.5,222.50000000000006 471,222.50000000000006" style="stroke-width: 111.667; fill: none; stroke: rgb(105, 191, 191); stroke-opacity: 0.4;"></path><path class="link" d="M8,382.7777777777778C239.5,382.7777777777778 239.5,362.7777777777778 471,362.7777777777778" style="stroke-width: 74.4444; fill: none; stroke: rgb(105, 191, 139); stroke-opacity: 0.4;"></path><path class="link" d="M479,796.3888888888886C710.5,796.3888888888886 710.5,821.3888888888887 942,821.3888888888887" style="stroke-width: 37.2222; fill: none; stroke: rgb(105, 139, 191); stroke-opacity: 0.4;"></path><path class="link" d="M8,100.8333333333334C239.5,100.8333333333334 239.5,90.8333333333334 471,90.8333333333334" style="stroke-width: 37.2222; fill: none; stroke: rgb(191, 182, 105); stroke-opacity: 0.4;"></path><path class="link" d="M8,148.05555555555563C239.5,148.05555555555563 239.5,138.05555555555563 471,138.05555555555563" style="stroke-width: 37.2222; fill: none; stroke: rgb(174, 191, 105); stroke-opacity: 0.4;"></path><path class="link" d="M8,53.61111111111117C239.5,53.61111111111117 239.5,43.61111111111117 471,43.61111111111117" style="stroke-width: 37.2222; fill: none; stroke: rgb(148, 191, 105); stroke-opacity: 0.4;"></path><path class="link" d="M8,739.1666666666665C239.5,739.1666666666665 239.5,749.1666666666664 471,749.1666666666664" style="stroke-width: 37.2222; fill: none; stroke: rgb(122, 191, 105); stroke-opacity: 0.4;"></path><path class="link" d="M8,316.94444444444446C239.5,316.94444444444446 239.5,306.94444444444446 471,306.94444444444446" style="stroke-width: 37.2222; fill: none; stroke: rgb(105, 191, 114); stroke-opacity: 0.4;"></path><path class="link" d="M8,644.7222222222222C239.5,644.7222222222222 239.5,654.7222222222221 471,654.7222222222221" style="stroke-width: 37.2222; fill: none; stroke: rgb(191, 105, 105); stroke-opacity: 0.4;"></path><path class="link" d="M8,475.83333333333337C239.5,475.83333333333337 239.5,475.8333333333333 471,475.8333333333333" style="stroke-width: 37.2222; fill: none; stroke: rgb(105, 191, 139); stroke-opacity: 0.4;"></path><path class="link" d="M8,438.61111111111114C239.5,438.61111111111114 239.5,428.6111111111111 471,428.6111111111111" style="stroke-width: 37.2222; fill: none; stroke: rgb(105, 191, 139); stroke-opacity: 0.4;"></path><path class="link" d="M8,560.2777777777777C239.5,560.2777777777777 239.5,560.2777777777777 471,560.2777777777777" style="stroke-width: 37.2222; fill: none; stroke: rgb(105, 191, 165); stroke-opacity: 0.4;"></path><path class="link" d="M8,597.5C239.5,597.5 239.5,607.4999999999999 471,607.4999999999999" style="stroke-width: 37.2222; fill: none; stroke: rgb(105, 191, 165); stroke-opacity: 0.4;"></path><path class="link" d="M8,523.0555555555555C239.5,523.0555555555555 239.5,513.0555555555555 471,513.0555555555555" style="stroke-width: 37.2222; fill: none; stroke: rgb(105, 191, 165); stroke-opacity: 0.4;"></path><path class="link" d="M8,691.9444444444443C239.5,691.9444444444443 239.5,701.9444444444442 471,701.9444444444442" style="stroke-width: 37.2222; fill: none; stroke: rgb(191, 156, 105); stroke-opacity: 0.4;"></path><path class="link" d="M479,654.7222222222221C710.5,654.7222222222221 710.5,679.7222222222222 942,679.7222222222222" style="stroke-width: 37.2222; fill: none; stroke: rgb(105, 165, 191); stroke-opacity: 0.4;"></path><path class="link" d="M8,786.3888888888887C239.5,786.3888888888887 239.5,796.3888888888886 471,796.3888888888886" style="stroke-width: 37.2222; fill: none; stroke: rgb(191, 131, 105); stroke-opacity: 0.4;"></path><path class="link" d="M479,701.9444444444442C710.5,701.9444444444442 710.5,726.9444444444443 942,726.9444444444443" style="stroke-width: 37.2222; fill: none; stroke: rgb(191, 156, 105); stroke-opacity: 0.4;"></path><path class="link" d="M479,90.8333333333334C710.5,90.8333333333334 710.5,65.8333333333335 942,65.8333333333335" style="stroke-width: 37.2222; fill: none; stroke: rgb(105, 114, 191); stroke-opacity: 0.4;"></path><path class="link" d="M479,138.05555555555563C710.5,138.05555555555563 710.5,113.05555555555573 942,113.05555555555573" style="stroke-width: 37.2222; fill: none; stroke: rgb(122, 105, 191); stroke-opacity: 0.4;"></path><path class="link" d="M479,43.61111111111117C710.5,43.61111111111117 710.5,18.61111111111128 942,18.61111111111128" style="stroke-width: 37.2222; fill: none; stroke: rgb(148, 191, 105); stroke-opacity: 0.4;"></path><path class="link" d="M479,749.1666666666664C710.5,749.1666666666664 710.5,774.1666666666665 942,774.1666666666665" style="stroke-width: 37.2222; fill: none; stroke: rgb(148, 105, 191); stroke-opacity: 0.4;"></path><path class="link" d="M479,344.1666666666667C710.5,344.1666666666667 710.5,349.1666666666668 942,349.1666666666668" style="stroke-width: 37.2222; fill: none; stroke: rgb(174, 105, 191); stroke-opacity: 0.4;"></path><path class="link" d="M479,381.3888888888889C710.5,381.3888888888889 710.5,396.388888888889 942,396.388888888889" style="stroke-width: 37.2222; fill: none; stroke: rgb(174, 105, 191); stroke-opacity: 0.4;"></path><path class="link" d="M479,306.94444444444446C710.5,306.94444444444446 710.5,301.94444444444457 942,301.94444444444457" style="stroke-width: 37.2222; fill: none; stroke: rgb(174, 105, 191); stroke-opacity: 0.4;"></path><path class="link" d="M479,513.0555555555555C710.5,513.0555555555555 710.5,538.0555555555557 942,538.0555555555557" style="stroke-width: 37.2222; fill: none; stroke: rgb(191, 105, 182); stroke-opacity: 0.4;"></path><path class="link" d="M479,475.8333333333333C710.5,475.8333333333333 710.5,490.8333333333335 942,490.8333333333335" style="stroke-width: 37.2222; fill: none; stroke: rgb(191, 105, 182); stroke-opacity: 0.4;"></path><path class="link" d="M479,428.6111111111111C710.5,428.6111111111111 710.5,443.61111111111126 942,443.61111111111126" style="stroke-width: 37.2222; fill: none; stroke: rgb(191, 105, 156); stroke-opacity: 0.4;"></path><path class="link" d="M479,560.2777777777777C710.5,560.2777777777777 710.5,585.2777777777778 942,585.2777777777778" style="stroke-width: 37.2222; fill: none; stroke: rgb(105, 191, 165); stroke-opacity: 0.4;"></path><path class="link" d="M479,607.4999999999999C710.5,607.4999999999999 710.5,632.5 942,632.5" style="stroke-width: 37.2222; fill: none; stroke: rgb(191, 105, 131); stroke-opacity: 0.4;"></path><path class="link" d="M479,259.7222222222223C710.5,259.7222222222223 710.5,254.7222222222224 942,254.7222222222224" style="stroke-width: 37.2222; fill: none; stroke: rgb(105, 191, 191); stroke-opacity: 0.4;"></path><path class="link" d="M479,222.50000000000009C710.5,222.50000000000009 710.5,207.50000000000017 942,207.50000000000017" style="stroke-width: 37.2222; fill: none; stroke: rgb(105, 191, 191); stroke-opacity: 0.4;"></path><path class="link" d="M479,185.27777777777786C710.5,185.27777777777786 710.5,160.27777777777794 942,160.27777777777794" style="stroke-width: 37.2222; fill: none; stroke: rgb(105, 191, 191); stroke-opacity: 0.4;"></path></g><g><g class="node" transform="translate(471,777.7777777777775)"><rect height="37.22222222222222" width="8"><title>Bravo2
1</title></rect><text x="14" y="18.61111111111111" dy=".35em" text-anchor="start" style="font-size: 11px; font-family: Arial, Helvetica; pointer-events: none;">Bravo2</text></g><g class="node" transform="translate(471,683.3333333333331)"><rect height="37.22222222222222" width="8"><title>Charlie
1</title></rect><text x="14" y="18.61111111111111" dy=".35em" text-anchor="start" style="font-size: 11px; font-family: Arial, Helvetica; pointer-events: none;">Charlie</text></g><g class="node" transform="translate(471,25.000000000000057)"><rect height="37.22222222222222" width="8"><title>Foxtrot
1</title></rect><text x="14" y="18.61111111111111" dy=".35em" text-anchor="start" style="font-size: 11px; font-family: Arial, Helvetica; pointer-events: none;">Foxtrot</text></g><g class="node" transform="translate(471,541.6666666666666)"><rect height="37.22222222222222" width="8"><title>Juliett
1</title></rect><text x="14" y="18.61111111111111" dy=".35em" text-anchor="start" style="font-size: 11px; font-family: Arial, Helvetica; pointer-events: none;">Juliett</text></g><g class="node" transform="translate(471,166.66666666666674)"><rect height="111.66666666666666" width="8"><title>Kilo
3</title></rect><text x="14" y="55.83333333333333" dy=".35em" text-anchor="start" style="font-size: 11px; font-family: Arial, Helvetica; pointer-events: none;">Kilo</text></g><g class="node" transform="translate(471,636.111111111111)"><rect height="37.22222222222222" width="8"><title>Lima
1</title></rect><text x="14" y="18.61111111111111" dy=".35em" text-anchor="start" style="font-size: 11px; font-family: Arial, Helvetica; pointer-events: none;">Lima</text></g><g class="node" transform="translate(471,72.22222222222229)"><rect height="37.22222222222222" width="8"><title>November
1</title></rect><text x="14" y="18.61111111111111" dy=".35em" text-anchor="start" style="font-size: 11px; font-family: Arial, Helvetica; pointer-events: none;">November</text></g><g class="node" transform="translate(471,119.44444444444451)"><rect height="37.22222222222222" width="8"><title>Oscar
1</title></rect><text x="14" y="18.61111111111111" dy=".35em" text-anchor="start" style="font-size: 11px; font-family: Arial, Helvetica; pointer-events: none;">Oscar</text></g><g class="node" transform="translate(471,730.5555555555553)"><rect height="37.22222222222222" width="8"><title>Papa
1</title></rect><text x="14" y="18.61111111111111" dy=".35em" text-anchor="start" style="font-size: 11px; font-family: Arial, Helvetica; pointer-events: none;">Papa</text></g><g class="node" transform="translate(471,288.33333333333337)"><rect height="111.66666666666666" width="8"><title>Quebec
3</title></rect><text x="14" y="55.83333333333333" dy=".35em" text-anchor="start" style="font-size: 11px; font-family: Arial, Helvetica; pointer-events: none;">Quebec</text></g><g class="node" transform="translate(471,457.22222222222223)"><rect height="74.44444444444444" width="8"><title>Romeo
2</title></rect><text x="14" y="37.22222222222222" dy=".35em" text-anchor="start" style="font-size: 11px; font-family: Arial, Helvetica; pointer-events: none;">Romeo</text></g><g class="node" transform="translate(471,410)"><rect height="37.22222222222222" width="8"><title>Sierra
1</title></rect><text x="14" y="18.61111111111111" dy=".35em" text-anchor="start" style="font-size: 11px; font-family: Arial, Helvetica; pointer-events: none;">Sierra</text></g><g class="node" transform="translate(471,588.8888888888888)"><rect height="37.22222222222222" width="8"><title>Tango
1</title></rect><text x="14" y="18.61111111111111" dy=".35em" text-anchor="start" style="font-size: 11px; font-family: Arial, Helvetica; pointer-events: none;">Tango</text></g><g class="node" transform="translate(942,802.7777777777776)"><rect height="37.22222222222222" width="8" style="fill: rgb(102, 102, 102);"><title>CNN
1</title></rect><text x="-6" y="18.61111111111111" dy=".35em" text-anchor="end" style="font-size: 11px; font-family: Arial, Helvetica; pointer-events: auto;">CNN</text></g><g class="node" transform="translate(942,755.5555555555554)"><rect height="37.22222222222222" width="8" style="fill: rgb(102, 102, 102);"><title>ESPN
1</title></rect><text x="-6" y="18.61111111111111" dy=".35em" text-anchor="end" style="font-size: 11px; font-family: Arial, Helvetica; pointer-events: auto;">ESPN</text></g><g class="node" transform="translate(942,708.3333333333333)"><rect height="37.22222222222222" width="8" style="fill: rgb(102, 102, 102);"><title>Facebook
1</title></rect><text x="-6" y="18.61111111111111" dy=".35em" text-anchor="end" style="font-size: 11px; font-family: Arial, Helvetica; pointer-events: auto;">Facebook</text></g><g class="node" transform="translate(942,661.1111111111111)"><rect height="37.22222222222222" width="8" style="fill: rgb(102, 102, 102);"><title>Google
1</title></rect><text x="-6" y="18.61111111111111" dy=".35em" text-anchor="end" style="font-size: 11px; font-family: Arial, Helvetica; pointer-events: auto;">Google</text></g><g class="node" transform="translate(942,377.77777777777794)"><rect height="37.22222222222222" width="8" style="fill: rgb(102, 102, 102);"><title>Hulu
1</title></rect><text x="-6" y="18.61111111111111" dy=".35em" text-anchor="end" style="font-size: 11px; font-family: Arial, Helvetica; pointer-events: auto;">Hulu</text></g><g class="node" transform="translate(942,236.11111111111128)"><rect height="37.22222222222222" width="8" style="fill: rgb(102, 102, 102);"><title>Instragram
1</title></rect><text x="-6" y="18.61111111111111" dy=".35em" text-anchor="end" style="font-size: 11px; font-family: Arial, Helvetica; pointer-events: auto;">Instragram</text></g><g class="node" transform="translate(942,613.8888888888889)"><rect height="37.22222222222222" width="8" style="fill: rgb(102, 102, 102);"><title>LinkedIn
1</title></rect><text x="-6" y="18.61111111111111" dy=".35em" text-anchor="end" style="font-size: 11px; font-family: Arial, Helvetica; pointer-events: auto;">LinkedIn</text></g><g class="node" transform="translate(942,566.6666666666667)"><rect height="37.22222222222222" width="8" style="fill: rgb(102, 102, 102);"><title>MSN
1</title></rect><text x="-6" y="18.61111111111111" dy=".35em" text-anchor="end" style="font-size: 11px; font-family: Arial, Helvetica; pointer-events: auto;">MSN</text></g><g class="node" transform="translate(942,330.5555555555557)"><rect height="37.22222222222222" width="8" style="fill: rgb(102, 102, 102);"><title>Netflix
1</title></rect><text x="-6" y="18.61111111111111" dy=".35em" text-anchor="end" style="font-size: 11px; font-family: Arial, Helvetica; pointer-events: auto;">Netflix</text></g><g class="node" transform="translate(942,519.4444444444446)"><rect height="37.22222222222222" width="8" style="fill: rgb(102, 102, 102);"><title>NYTimes
1</title></rect><text x="-6" y="18.61111111111111" dy=".35em" text-anchor="end" style="font-size: 11px; font-family: Arial, Helvetica; pointer-events: auto;">NYTimes</text></g><g class="node" transform="translate(942,425.00000000000017)"><rect height="37.22222222222222" width="8" style="fill: rgb(102, 102, 102);"><title>Pandora
1</title></rect><text x="-6" y="18.61111111111111" dy=".35em" text-anchor="end" style="font-size: 11px; font-family: Arial, Helvetica; pointer-events: auto;">Pandora</text></g><g class="node" transform="translate(942,94.44444444444461)"><rect height="37.22222222222222" width="8" style="fill: rgb(102, 102, 102);"><title>Pinterest
1</title></rect><text x="-6" y="18.61111111111111" dy=".35em" text-anchor="end" style="font-size: 11px; font-family: Arial, Helvetica; pointer-events: none;">Pinterest</text></g><g class="node" transform="translate(942,188.88888888888906)"><rect height="37.22222222222222" width="8" style="fill: rgb(102, 102, 102);"><title>Reddit
1</title></rect><text x="-6" y="18.61111111111111" dy=".35em" text-anchor="end" style="font-size: 11px; font-family: Arial, Helvetica; pointer-events: none;">Reddit</text></g><g class="node" transform="translate(942,283.3333333333335)"><rect height="37.22222222222222" width="8" style="fill: rgb(102, 102, 102);"><title>Spotify
1</title></rect><text x="-6" y="18.61111111111111" dy=".35em" text-anchor="end" style="font-size: 11px; font-family: Arial, Helvetica; pointer-events: none;">Spotify</text></g><g class="node" transform="translate(942,141.66666666666683)"><rect height="37.22222222222222" width="8" style="fill: rgb(102, 102, 102);"><title>Tumblr
1</title></rect><text x="-6" y="18.61111111111111" dy=".35em" text-anchor="end" style="font-size: 11px; font-family: Arial, Helvetica; pointer-events: none;">Tumblr</text></g><g class="node" transform="translate(942,47.22222222222239)"><rect height="37.22222222222222" width="8" style="fill: rgb(102, 102, 102);"><title>Twitter
1</title></rect><text x="-6" y="18.61111111111111" dy=".35em" text-anchor="end" style="font-size: 11px; font-family: Arial, Helvetica; pointer-events: none;">Twitter</text></g><g class="node" transform="translate(942,1.7053025658242404e-13)"><rect height="37.22222222222222" width="8" style="fill: rgb(102, 102, 102);"><title>Wikipedia
1</title></rect><text x="-6" y="18.61111111111111" dy=".35em" text-anchor="end" style="font-size: 11px; font-family: Arial, Helvetica; pointer-events: none;">Wikipedia</text></g><g class="node" transform="translate(942,472.2222222222224)"><rect height="37.22222222222222" width="8" style="fill: rgb(102, 102, 102);"><title>YouTube
1</title></rect><text x="-6" y="18.61111111111111" dy=".35em" text-anchor="end" style="font-size: 11px; font-family: Arial, Helvetica; pointer-events: none;">YouTube</text></g><g class="node" transform="translate(0,626.1111111111111)"><rect height="37.22222222222222" width="8"><title>Alpha
1</title></rect><text x="14" y="18.61111111111111" dy=".35em" text-anchor="start" style="font-size: 11px; font-family: Arial, Helvetica; pointer-events: none;">Alpha</text></g><g class="node" transform="translate(0,767.7777777777776)"><rect height="37.22222222222222" width="8"><title>Bravo
1</title></rect><text x="14" y="18.61111111111111" dy=".35em" text-anchor="start" style="font-size: 11px; font-family: Arial, Helvetica; pointer-events: none;">Bravo</text></g><g class="node" transform="translate(0,673.3333333333333)"><rect height="37.22222222222222" width="8"><title>Charlie
1</title></rect><text x="14" y="18.61111111111111" dy=".35em" text-anchor="start" style="font-size: 11px; font-family: Arial, Helvetica; pointer-events: none;">Charlie</text></g><g class="node" transform="translate(0,82.22222222222229)"><rect height="37.22222222222222" width="8"><title>Delta
1</title></rect><text x="14" y="18.61111111111111" dy=".35em" text-anchor="start" style="font-size: 11px; font-family: Arial, Helvetica; pointer-events: none;">Delta </text></g><g class="node" transform="translate(0,129.4444444444445)"><rect height="37.22222222222222" width="8"><title>Echo
1</title></rect><text x="14" y="18.61111111111111" dy=".35em" text-anchor="start" style="font-size: 11px; font-family: Arial, Helvetica; pointer-events: none;">Echo</text></g><g class="node" transform="translate(0,35.00000000000006)"><rect height="37.22222222222222" width="8"><title>Foxtrot
1</title></rect><text x="14" y="18.61111111111111" dy=".35em" text-anchor="start" style="font-size: 11px; font-family: Arial, Helvetica; pointer-events: none;">Foxtrot</text></g><g class="node" transform="translate(0,720.5555555555554)"><rect height="37.22222222222222" width="8"><title>Golf
1</title></rect><text x="14" y="18.61111111111111" dy=".35em" text-anchor="start" style="font-size: 11px; font-family: Arial, Helvetica; pointer-events: none;">Golf</text></g><g class="node" transform="translate(0,298.33333333333337)"><rect height="37.22222222222222" width="8"><title>Hotel
1</title></rect><text x="14" y="18.61111111111111" dy=".35em" text-anchor="start" style="font-size: 11px; font-family: Arial, Helvetica; pointer-events: none;">Hotel</text></g><g class="node" transform="translate(0,345.5555555555556)"><rect height="148.88888888888889" width="8"><title>India
4</title></rect><text x="14" y="74.44444444444444" dy=".35em" text-anchor="start" style="font-size: 11px; font-family: Arial, Helvetica; pointer-events: none;">India</text></g><g class="node" transform="translate(0,504.44444444444446)"><rect height="111.66666666666666" width="8"><title>Juliett
3</title></rect><text x="14" y="55.83333333333333" dy=".35em" text-anchor="start" style="font-size: 11px; font-family: Arial, Helvetica; pointer-events: none;">Juliett</text></g><g class="node" transform="translate(0,176.66666666666674)"><rect height="111.66666666666666" width="8"><title>Kilo
3</title></rect><text x="14" y="55.83333333333333" dy=".35em" text-anchor="start" style="font-size: 11px; font-family: Arial, Helvetica; pointer-events: none;">Kilo</text></g></g></g></svg>
